# File created by Blade
# Date/Time:  Thu Sep 25 18:39:44 2014
# Frame Rate: 120.000 fps
#------------------------------------------------------
:FULLY-SPECIFIED
:DEGREES
490
root -0.829387 33.137004 -1.916175 8.278241 8.027438 -0.588735
Spine -13.906348 5.427158 -0.221477
Head 7.891782 -16.353690 6.241125
LeftShoulder -10.527490 -7.228649 47.444224
LeftArm 96.482765 -71.341808 -79.784158
LeftForeArm -35.827646 -0.000000 110.323087
LeftHand -23.855025 -0.000000 1.334989
LeftHandThumb1 -26.253704 0.000000 33.147579
RightShoulder -120.169767 38.492267 -202.192624
RightArm -18.685074 7.696731 55.207017
RightForeArm 39.313301 -0.000000 159.178487
RightHand 6.918643 -0.000000 28.348429
RightHandThumb1 -24.326973 -0.000000 -32.862282
LeftUpLeg -0.814498 3.950328 2.072675
LeftLeg -2.219927 -0.000000 0.000000
LeftFoot -7.416604 -0.518433 -11.115801
LeftToeBase 9.906672 -0.000000 -0.000000
RightUpLeg -0.731800 -9.335833 0.428659
RightLeg 0.239933 -0.000000 -0.000000
RightFoot -7.257567 -3.519404 1.381790
RightToeBase -0.780742 -0.000000 0.000000
491
root -0.830442 33.137652 -1.919443 8.279659 8.027614 -0.587295
Spine -13.907145 5.429740 -0.229376
Head 7.839350 -16.160657 6.284941
LeftShoulder -10.543427 -7.242139 47.447810
LeftArm 96.421100 -71.352582 -79.739814
LeftForeArm -35.809063 -0.000000 110.345505
LeftHand -23.890155 -0.000000 1.365884
LeftHandThumb1 -26.253704 0.000000 33.147579
RightShoulder -120.241777 38.440394 -202.247047
RightArm -18.684929 7.666628 55.225003
RightForeArm 39.316440 -0.000000 159.168178
RightHand 6.930583 -0.000000 28.329334
RightHandThumb1 -24.326973 -0.000000 -32.862282
LeftUpLeg -0.820930 3.943855 2.070389
LeftLeg -2.222087 -0.000000 0.000000
LeftFoot -7.402238 -0.499081 -11.120580
LeftToeBase 9.913855 -0.000000 -0.000000
RightUpLeg -0.744513 -9.351291 0.429302
RightLeg 0.251330 -0.000000 -0.000000
RightFoot -7.253646 -3.498956 1.398527
RightToeBase -0.819874 -0.000000 0.000000
492
root -0.831851 33.137830 -1.922470 8.283095 8.029327 -0.594008
Spine -13.911983 5.440144 -0.232741
Head 7.760365 -16.008193 6.326977
LeftShoulder -10.559759 -7.249839 47.456060
LeftArm 96.358342 -71.364025 -79.700678
LeftForeArm -35.767952 -0.000000 110.382170
LeftHand -23.929022 -0.000000 1.452457
LeftHandThumb1 -26.253704 0.000000 33.147579
RightShoulder -120.302893 38.396056 -202.288702
RightArm -18.673212 7.660019 55.222819
RightForeArm 39.351595 -0.000000 159.160536
RightHand 6.933858 -0.000000 28.290909
RightHandThumb1 -24.326973 -0.000000 -32.862282
LeftUpLeg -0.830059 3.965416 2.081686
LeftLeg -2.230842 -0.000000 0.000000
LeftFoot -7.391868 -0.543657 -11.077354
LeftToeBase 9.919151 -0.000000 -0.000000
RightUpLeg -0.755848 -9.364146 0.440500
RightLeg 0.253589 -0.000000 -0.000000
RightFoot -7.249958 -3.495705 1.383082
RightToeBase -0.798315 -0.000000 0.000000
493
root -0.834198 33.138411 -1.926665 8.286905 8.034609 -0.590003
Spine -13.912551 5.443849 -0.249086
Head 7.691777 -15.861779 6.349471
LeftShoulder -10.566635 -7.289913 47.468462
LeftArm 96.245182 -71.372682 -79.618673
LeftForeArm -35.783931 -0.000000 110.424398
LeftHand -24.007203 -0.000000 1.608996
LeftHandThumb1 -26.253704 0.000000 33.147579
RightShoulder -120.360293 38.350262 -202.317071
RightArm -18.643171 7.667214 55.230970
RightForeArm 39.394002 -0.000000 159.143140
RightHand 6.919914 0.000000 28.268063
RightHandThumb1 -24.326973 -0.000000 -32.862282
LeftUpLeg -0.844127 3.949787 2.076586
LeftLeg -2.218138 -0.000000 0.000000
LeftFoot -7.410331 -0.504711 -11.133711
LeftToeBase 9.989779 -0.000000 -0.000000
RightUpLeg -0.765374 -9.360900 0.442594
RightLeg 0.249367 -0.000000 -0.000000
RightFoot -7.243753 -3.509462 1.375482
RightToeBase -0.803808 -0.000000 0.000000
494
root -0.836163 33.138123 -1.930667 8.298005 8.025555 -0.591153
Spine -13.922591 5.467179 -0.258935
Head 7.617658 -15.748872 6.345993
LeftShoulder -10.557787 -7.421372 47.534312
LeftArm 95.809540 -71.401535 -79.290874
LeftForeArm -35.823997 -0.000000 110.485009
LeftHand -23.965667 -0.000000 1.545184
LeftHandThumb1 -26.253704 0.000000 33.147579
RightShoulder -120.381076 38.316858 -202.320447
RightArm -18.604235 7.688026 55.241386
RightForeArm 39.400347 -0.000000 159.138019
RightHand 6.880709 -0.000000 28.219475
RightHandThumb1 -24.326973 -0.000000 -32.862282
LeftUpLeg -0.861209 3.975380 2.076604
LeftLeg -2.220671 -0.000000 0.000000
LeftFoot -7.394041 -0.517266 -11.102634
LeftToeBase 9.917095 -0.000000 -0.000000
RightUpLeg -0.787699 -9.346346 0.448954
RightLeg 0.257210 -0.000000 -0.000000
RightFoot -7.253216 -3.517424 1.338767
RightToeBase -0.799125 -0.000000 0.000000
495
root -0.838331 33.138125 -1.934701 8.304215 8.038912 -0.589103
Spine -13.926086 5.466060 -0.273323
Head 7.554516 -15.646097 6.343717
LeftShoulder -10.575483 -7.501982 47.583997
LeftArm 95.594706 -71.386459 -79.158945
LeftForeArm -35.808578 -0.000000 110.511815
LeftHand -23.985832 -0.000000 1.564310
LeftHandThumb1 -26.253704 0.000000 33.147579
RightShoulder -120.416988 38.252999 -202.376392
RightArm -18.648459 7.713651 55.245371
RightForeArm 39.446404 0.000000 159.136522
RightHand 6.880756 -0.000000 28.233773
RightHandThumb1 -24.326973 -0.000000 -32.862282
LeftUpLeg -0.877589 3.949540 2.077671
LeftLeg -2.218132 -0.000000 0.000000
LeftFoot -7.393489 -0.504109 -11.127970
LeftToeBase 9.891125 -0.000000 -0.000000
RightUpLeg -0.801627 -9.373557 0.453037
RightLeg 0.258145 -0.000000 -0.000000
RightFoot -7.242096 -3.494822 1.351631
RightToeBase -0.857054 -0.000000 0.000000
496
root -0.841824 33.138554 -1.938195 8.302209 8.041236 -0.594026
Spine -13.924226 5.477685 -0.290516
Head 7.486732 -15.540238 6.354244
LeftShoulder -10.598602 -7.530001 47.576717
LeftArm 95.569561 -71.351124 -79.121357
LeftForeArm -35.794641 -0.000000 110.527351
LeftHand -23.974121 -0.000000 1.436420
LeftHandThumb1 -26.253704 0.000000 33.147579
RightShoulder -120.480478 38.184767 -202.425195
RightArm -18.654490 7.672827 55.263886
RightForeArm 39.421258 -0.000000 159.122956
RightHand 6.877857 -0.000000 28.244337
RightHandThumb1 -24.326973 -0.000000 -32.862282
LeftUpLeg -0.880516 3.960620 2.087380
LeftLeg -2.224731 -0.000000 0.000000
LeftFoot -7.381077 -0.516713 -11.123565
LeftToeBase 9.888462 -0.000000 -0.000000
RightUpLeg -0.802265 -9.380470 0.460778
RightLeg 0.252111 -0.000000 -0.000000
RightFoot -7.245372 -3.472258 1.366344
RightToeBase -0.798702 -0.000000 0.000000
497
root -0.843642 33.138933 -1.942060 8.301293 8.051115 -0.597294
Spine -13.921646 5.483709 -0.291618
Head 7.424338 -15.439573 6.344869
LeftShoulder -10.638068 -7.480335 47.555021
LeftArm 95.781192 -71.298562 -79.332691
LeftForeArm -35.703783 -0.000000 110.541143
LeftHand -24.021085 -0.000000 1.487693
LeftHandThumb1 -26.253704 0.000000 33.147579
RightShoulder -120.533102 38.143347 -202.443583
RightArm -18.597749 7.619789 55.296194
RightForeArm 39.377736 -0.000000 159.104452
RightHand 6.893638 -0.000000 28.213777
RightHandThumb1 -24.326973 -0.000000 -32.862282
LeftUpLeg -0.895145 3.957118 2.092567
LeftLeg -2.210895 -0.000000 0.000000
LeftFoot -7.383203 -0.522804 -11.118737
LeftToeBase 9.886309 -0.000000 -0.000000
RightUpLeg -0.804589 -9.403142 0.467404
RightLeg 0.241843 -0.000000 -0.000000
RightFoot -7.231991 -3.453997 1.373451
RightToeBase -0.802118 -0.000000 0.000000
498
root -0.845525 33.138775 -1.948280 8.296694 8.075293 -0.596472
Spine -13.896482 5.460595 -0.298951
Head 7.325732 -15.347825 6.375710
LeftShoulder -10.678301 -7.614412 47.588440
LeftArm 95.408014 -71.261140 -79.003644
LeftForeArm -35.688709 -0.000000 110.580943
LeftHand -24.045380 -0.000000 1.429219
LeftHandThumb1 -26.253704 0.000000 33.147579
RightShoulder -120.576871 38.071847 -202.476477
RightArm -18.598110 7.612629 55.309752
RightForeArm 39.381106 -0.000000 159.108441
RightHand 6.870687 -0.000000 28.238384
RightHandThumb1 -24.326973 -0.000000 -32.862282
LeftUpLeg -0.910326 3.928261 2.095935
LeftLeg -2.199950 -0.000000 0.000000
LeftFoot -7.392000 -0.505451 -11.109230
LeftToeBase 9.939869 -0.000000 -0.000000
RightUpLeg -0.803042 -9.370012 0.469141
RightLeg 0.233581 -0.000000 -0.000000
RightFoot -7.235163 -3.489804 1.408836
RightToeBase -0.793852 -0.000000 0.000000
499
root -0.847531 33.138927 -1.952074 8.296106 8.082553 -0.596625
Spine -13.891974 5.464213 -0.305416
Head 7.240086 -15.238470 6.401567
LeftShoulder -10.684526 -7.645821 47.594472
LeftArm 95.355617 -71.252453 -78.989008
LeftForeArm -35.667084 -0.000000 110.616062
LeftHand -24.086306 -0.000000 1.460338
LeftHandThumb1 -26.253704 0.000000 33.147579
RightShoulder -120.613662 38.018883 -202.513174
RightArm -18.599501 7.574367 55.331015
RightForeArm 39.353170 -0.000000 159.099979
RightHand 6.881535 -0.000000 28.245865
RightHandThumb1 -24.326973 -0.000000 -32.862282
LeftUpLeg -0.914484 3.908269 2.104128
LeftLeg -2.215847 -0.000000 0.000000
LeftFoot -7.363147 -0.522988 -11.072505
LeftToeBase 9.909426 -0.000000 -0.000000
RightUpLeg -0.806440 -9.383736 0.474771
RightLeg 0.225005 -0.000000 -0.000000
RightFoot -7.221052 -3.486799 1.410127
RightToeBase -0.818129 -0.000000 0.000000
500
root -0.849908 33.139287 -1.956564 8.294285 8.085112 -0.595853
Spine -13.887561 5.477352 -0.317161
Head 7.173832 -15.126425 6.430857
LeftShoulder -10.686330 -7.647198 47.589978
LeftArm 95.341823 -71.242142 -78.984562
LeftForeArm -35.555796 0.000000 110.645264
LeftHand -24.058399 -0.000000 1.504540
LeftHandThumb1 -26.253704 0.000000 33.147579
RightShoulder -120.675946 37.935892 -202.573905
RightArm -18.602124 7.496934 55.410017
RightForeArm 39.290871 -0.000000 159.079245
RightHand 6.895596 0.000000 28.274939
RightHandThumb1 -24.326973 -0.000000 -32.862282
LeftUpLeg -0.924911 3.916482 2.101128
LeftLeg -2.200404 -0.000000 0.000000
LeftFoot -7.384871 -0.500111 -11.093482
LeftToeBase 9.967009 -0.000000 -0.000000
RightUpLeg -0.816085 -9.383924 0.478612
RightLeg 0.230882 -0.000000 -0.000000
RightFoot -7.221853 -3.500512 1.389879
RightToeBase -0.830275 -0.000000 0.000000
501
root -0.850858 33.139631 -1.960273 8.292531 8.094036 -0.595631
Spine -13.885637 5.480066 -0.315900
Head 7.114418 -15.033526 6.440069
LeftShoulder -10.687477 -7.637055 47.582354
LeftArm 95.444542 -71.242010 -79.119557
LeftForeArm -35.533933 -0.000000 110.671857
LeftHand -24.079633 -0.000000 1.486877
LeftHandThumb1 -26.253704 0.000000 33.147579
RightShoulder -120.717290 37.901889 -202.607009
RightArm -18.574249 7.461206 55.422759
RightForeArm 39.282202 -0.000000 159.059365
RightHand 6.903101 0.000000 28.261072
RightHandThumb1 -24.326973 -0.000000 -32.862282
LeftUpLeg -0.933056 3.900548 2.101543
LeftLeg -2.197929 -0.000000 0.000000
LeftFoot -7.380190 -0.494649 -11.101360
LeftToeBase 9.971483 -0.000000 -0.000000
RightUpLeg -0.818169 -9.405038 0.479377
RightLeg 0.228308 -0.000000 -0.000000
RightFoot -7.215743 -3.471833 1.406718
RightToeBase -0.810797 -0.000000 0.000000
